<svg width="56" height="56" viewBox="0 0 56 56" fill="none" xmlns="http://www.w3.org/2000/svg">
<path fill-rule="evenodd" clip-rule="evenodd" d="M28 2.91666C26.5883 2.91666 25.2887 3.26666 23.8677 3.85466C22.4933 4.42399 20.8973 5.26166 18.9117 6.30466L14.0863 8.83632C11.648 10.115 9.69966 11.1393 8.18999 12.145C6.63132 13.188 5.42732 14.2847 4.55232 15.771C3.67966 17.2527 3.28766 18.858 3.09866 20.769C2.91666 22.624 2.91666 24.9037 2.91666 27.7737V28.2263C2.91666 31.0963 2.91666 33.376 3.09866 35.231C3.28766 37.1443 3.68199 38.7473 4.55232 40.229C5.42732 41.7153 6.62899 42.812 8.19232 43.855C9.69732 44.8607 11.648 45.885 14.0863 47.1637L18.9117 49.6953C20.8973 50.7383 22.4933 51.576 23.8677 52.1453C25.291 52.7333 26.5883 53.0833 28 53.0833C29.4117 53.0833 30.7113 52.7333 32.1323 52.1453C33.5067 51.576 35.1027 50.7383 37.0883 49.6953L41.9137 47.166C44.352 45.885 46.3003 44.8607 47.8077 43.855C49.371 42.812 50.5727 41.7153 51.4477 40.229C52.3203 38.7473 52.7123 37.142 52.9013 35.231C53.0833 33.376 53.0833 31.0963 53.0833 28.2263V27.7737C53.0833 24.9037 53.0833 22.624 52.9013 20.769C52.7123 18.8557 52.318 17.2527 51.4477 15.771C50.5727 14.2847 49.371 13.188 47.8077 12.145C46.3027 11.1393 44.352 10.115 41.9137 8.83632L37.0883 6.30466C35.1027 5.26166 33.5067 4.42399 32.1323 3.85466C30.709 3.26666 29.4117 2.91666 28 2.91666ZM20.4633 9.44066C22.54 8.35099 23.996 7.59032 25.2047 7.09099C26.3807 6.60332 27.209 6.41666 28 6.41666C28.7933 6.41666 29.6193 6.60332 30.7953 7.09099C32.004 7.59032 33.4577 8.35099 35.5343 9.44066L40.201 11.8907C42.7443 13.223 44.5293 14.1633 45.8663 15.0547C46.5243 15.4957 47.04 15.904 47.46 16.3147L39.6877 20.1997L19.8543 9.76032L20.4633 9.44066ZM16.205 11.676L15.799 11.8907C13.2557 13.223 11.4707 14.1633 10.136 15.0547C9.5665 15.4238 9.03293 15.8457 8.54232 16.3147L28 26.0447L35.833 22.1247L16.6857 12.0493C16.5048 11.9539 16.3421 11.8276 16.205 11.676ZM6.85532 19.383C6.73866 19.8823 6.64766 20.4493 6.58232 21.1097C6.41899 22.7757 6.41666 24.8827 6.41666 27.8623V28.1353C6.41666 31.1173 6.41666 33.2243 6.58232 34.888C6.74332 36.5143 7.04899 37.5667 7.56932 38.4533C8.08732 39.333 8.83632 40.0773 10.136 40.9453C11.4707 41.8367 13.2557 42.777 15.799 44.1093L20.4657 46.5593C22.5423 47.649 23.996 48.4097 25.2047 48.909C25.5873 49.0677 25.9303 49.1937 26.25 49.294V29.0803L6.85532 19.383ZM29.75 49.2917C30.0697 49.1937 30.4127 49.0677 30.7953 48.909C32.004 48.4097 33.4577 47.649 35.5343 46.5593L40.201 44.1093C42.7443 42.7747 44.5293 41.8367 45.8663 40.9453C47.1637 40.0773 47.9127 39.333 48.433 38.4533C48.9533 37.5667 49.2567 36.5167 49.4177 34.888C49.581 33.2243 49.5833 31.1173 49.5833 28.1377V27.8647C49.5833 24.8827 49.5833 22.7757 49.4177 21.112C49.3651 20.531 49.2739 19.9542 49.1447 19.3853L41.4167 23.247V30.3333C41.4167 30.7975 41.2323 31.2426 40.9041 31.5708C40.5759 31.8989 40.1308 32.0833 39.6667 32.0833C39.2025 32.0833 38.7574 31.8989 38.4292 31.5708C38.101 31.2426 37.9167 30.7975 37.9167 30.3333V24.997L29.75 29.0803V49.2917Z" fill="#1662FF"/>
</svg>
