<svg width="56" height="56" viewBox="0 0 56 56" fill="none" xmlns="http://www.w3.org/2000/svg">
<path fill-rule="evenodd" clip-rule="evenodd" d="M27.8693 2.91666H28.1307C32.4193 2.91666 35.8167 2.91666 38.4743 3.27366C41.209 3.64233 43.4233 4.417 45.171 6.16233C46.9163 7.91 47.691 10.1243 48.0597 12.859C48.3 14.6417 48.377 16.7557 48.4027 19.25H49C51.254 19.25 53.0833 21.0793 53.0833 23.3333V25.6667C53.0833 26.95 52.4767 28.1633 51.45 28.9333L48.4097 31.213C48.3933 34.0877 48.3257 36.4863 48.0597 38.4743C47.691 41.209 46.9163 43.4233 45.171 45.171C44.7277 45.6143 44.254 45.9947 43.75 46.3213V49C43.75 50.083 43.3198 51.1216 42.554 51.8873C41.7882 52.6531 40.7496 53.0833 39.6667 53.0833H36.1667C35.0837 53.0833 34.0451 52.6531 33.2793 51.8873C32.5135 51.1216 32.0833 50.083 32.0833 49V48.4027C30.8583 48.4167 29.5447 48.4167 28.1307 48.4167H27.8693C26.4553 48.4167 25.1393 48.4167 23.9167 48.4027V49C23.9167 50.083 23.4865 51.1216 22.7207 51.8873C21.9549 52.6531 20.9163 53.0833 19.8333 53.0833H16.3333C15.2504 53.0833 14.2117 52.6531 13.446 51.8873C12.6802 51.1216 12.25 50.083 12.25 49V46.3213C11.7373 45.9888 11.261 45.6032 10.829 45.171C9.08366 43.4233 8.30899 41.209 7.94032 38.4743C7.67432 36.4863 7.60666 34.0877 7.59032 31.213L4.54999 28.9333C3.52332 28.1633 2.91666 26.95 2.91666 25.6667V23.3333C2.91666 21.0793 4.74599 19.25 6.99999 19.25H7.59499C7.62299 16.7557 7.69999 14.6417 7.94032 12.859C8.30899 10.1243 9.08366 7.91 10.829 6.16233C12.5767 4.417 14.791 3.64233 17.5257 3.27366C20.1857 2.91666 23.5807 2.91666 27.8693 2.91666ZM7.58332 22.75H6.99999C6.84528 22.75 6.69691 22.8115 6.58751 22.9209C6.47811 23.0302 6.41666 23.1786 6.41666 23.3333V25.6667C6.41666 25.7572 6.43774 25.8465 6.47824 25.9275C6.51874 26.0085 6.57754 26.079 6.64999 26.1333L7.58332 26.8333V22.75ZM11.0973 32.0833C11.1207 34.496 11.1953 36.4187 11.41 38.01C11.725 40.355 12.3177 41.7083 13.3047 42.6953C14.2917 43.6823 15.645 44.275 17.9923 44.59C20.391 44.912 23.5503 44.9167 28 44.9167C32.4497 44.9167 35.609 44.912 38.01 44.59C40.355 44.275 41.7083 43.6823 42.6953 42.6953C43.6823 41.7083 44.275 40.355 44.59 38.0077C44.8047 36.421 44.877 34.496 44.9027 32.0833H11.0973ZM44.9167 28.5833H11.0833V23.3333C11.0833 18.9397 11.088 15.8037 11.3983 13.4167H44.6017C44.912 15.8037 44.9167 18.9397 44.9167 23.3333V28.5833ZM48.4167 26.8333L49.35 26.1333C49.4224 26.079 49.4812 26.0085 49.5217 25.9275C49.5622 25.8465 49.5833 25.7572 49.5833 25.6667V23.3333C49.5833 23.1786 49.5219 23.0302 49.4125 22.9209C49.3031 22.8115 49.1547 22.75 49 22.75H48.4167V26.8333ZM43.6357 9.91666C43.3888 9.44527 43.0717 9.01412 42.6953 8.638C41.7083 7.651 40.355 7.05833 38.0077 6.74333C35.609 6.42133 32.4497 6.41666 28 6.41666C23.5503 6.41666 20.391 6.42133 17.99 6.74333C15.645 7.05833 14.2917 7.651 13.3047 8.638C12.9285 9.01434 12.6115 9.44544 12.3643 9.91666H43.6357ZM15.75 47.74V49C15.75 49.322 16.0113 49.5833 16.3333 49.5833H19.8333C19.988 49.5833 20.1364 49.5219 20.2458 49.4125C20.3552 49.3031 20.4167 49.1547 20.4167 49V48.3093C19.45 48.2658 18.4855 48.1825 17.5257 48.0597C16.9291 47.9809 16.3366 47.8742 15.75 47.74ZM35.5833 48.3093V49C35.5833 49.322 35.8447 49.5833 36.1667 49.5833H39.6667C39.8214 49.5833 39.9697 49.5219 40.0791 49.4125C40.1885 49.3031 40.25 49.1547 40.25 49V47.74C39.6636 47.8749 39.071 47.9816 38.4743 48.0597C37.5145 48.1825 36.55 48.2658 35.5833 48.3093ZM14.5833 37.3333C14.5833 36.8692 14.7677 36.4241 15.0959 36.0959C15.4241 35.7677 15.8692 35.5833 16.3333 35.5833H19.8333C20.2975 35.5833 20.7426 35.7677 21.0708 36.0959C21.3989 36.4241 21.5833 36.8692 21.5833 37.3333C21.5833 37.7975 21.3989 38.2426 21.0708 38.5708C20.7426 38.899 20.2975 39.0833 19.8333 39.0833H16.3333C15.8692 39.0833 15.4241 38.899 15.0959 38.5708C14.7677 38.2426 14.5833 37.7975 14.5833 37.3333ZM34.4167 37.3333C34.4167 36.8692 34.601 36.4241 34.9292 36.0959C35.2574 35.7677 35.7025 35.5833 36.1667 35.5833H39.6667C40.1308 35.5833 40.5759 35.7677 40.9041 36.0959C41.2323 36.4241 41.4167 36.8692 41.4167 37.3333C41.4167 37.7975 41.2323 38.2426 40.9041 38.5708C40.5759 38.899 40.1308 39.0833 39.6667 39.0833H36.1667C35.7025 39.0833 35.2574 38.899 34.9292 38.5708C34.601 38.2426 34.4167 37.7975 34.4167 37.3333Z" fill="#1662FF"/>
</svg>
