<svg width="56" height="56" viewBox="0 0 56 56" fill="none" xmlns="http://www.w3.org/2000/svg">
<path fill-rule="evenodd" clip-rule="evenodd" d="M6.87866 14.9053C3.33666 11.2863 5.93833 5.25 10.9667 5.25H45.0287C50.0593 5.25 52.6587 11.2863 49.119 14.9053L29.7477 34.7153V47.25H37.9003C38.3645 47.25 38.8096 47.4344 39.1378 47.7626C39.466 48.0907 39.6503 48.5359 39.6503 49C39.6503 49.4641 39.466 49.9092 39.1378 50.2374C38.8096 50.5656 38.3645 50.75 37.9003 50.75H18.0973C17.6332 50.75 17.1881 50.5656 16.8599 50.2374C16.5317 49.9092 16.3473 49.4641 16.3473 49C16.3473 48.5359 16.5317 48.0907 16.8599 47.7626C17.1881 47.4344 17.6332 47.25 18.0973 47.25H26.25V34.713L6.87866 14.9053ZM28 31.4953L34.8437 24.5H21.1563L28 31.4953ZM17.7333 21H38.2667L46.62 12.46C47.9617 11.0857 47.005 8.75 45.0333 8.75H10.9667C8.995 8.75 8.03833 11.0857 9.38 12.46L17.7333 21Z" fill="#1662FF"/>
</svg>
