<svg width="56" height="56" viewBox="0 0 56 56" fill="none" xmlns="http://www.w3.org/2000/svg">
<path fill-rule="evenodd" clip-rule="evenodd" d="M14.553 10.9947C14.9876 10.8435 15.3451 10.5272 15.5482 10.1144C15.7514 9.70155 15.7837 9.22531 15.6383 8.78878C15.4929 8.35225 15.1814 7.99055 14.7713 7.78197C14.3612 7.57339 13.8854 7.53472 13.447 7.67433L12.152 8.106C10.822 8.54933 9.69033 8.925 8.79433 9.33567C7.84 9.772 7.00467 10.3063 6.342 11.1463C5.677 11.9863 5.348 12.9197 5.14033 13.9463C4.94667 14.9147 4.83933 16.1 4.71333 17.4977L3.08467 35.3943C2.97332 36.0284 2.91711 36.6709 2.91667 37.3147C2.92833 43.4257 7.88667 48.4167 14 48.4167C16.6307 48.4167 19.1756 47.4811 21.18 45.7773C23.1843 44.0735 24.5174 41.7124 24.941 39.116L25.452 38.934C27.0998 38.3464 28.9002 38.3464 30.548 38.934L31.0613 39.116C31.4849 41.712 32.8176 44.0728 34.8215 45.7765C36.8253 47.4803 39.3697 48.4161 42 48.4167C48.1133 48.4167 53.0693 43.4233 53.0833 37.3147C53.0833 36.6613 53.025 36.0173 52.913 35.3943L51.2867 17.5C51.1607 16.1 51.0533 14.917 50.8597 13.951C50.652 12.922 50.323 11.9863 49.658 11.1487C48.993 10.3087 48.16 9.772 47.2057 9.338C46.3097 8.92733 45.1803 8.55167 43.848 8.10833L42.553 7.67667C42.1146 7.53706 41.6388 7.57572 41.2287 7.7843C40.8186 7.99288 40.5071 8.35458 40.3617 8.79111C40.2163 9.22765 40.2486 9.70388 40.4518 10.1167C40.6549 10.5296 41.0124 10.8458 41.447 10.997L42.6557 11.3983C44.0953 11.879 45.045 12.1987 45.7497 12.5207C46.417 12.824 46.7157 13.069 46.9163 13.321C47.1147 13.5707 47.2827 13.9183 47.4273 14.637C47.579 15.3977 47.6723 16.394 47.81 17.906L48.7783 28.567C47.2673 27.3994 45.4802 26.642 43.5903 26.3681C41.7005 26.0942 39.7719 26.3132 37.9915 27.0037C36.2111 27.6943 34.6393 28.833 33.4284 30.3096C32.2175 31.7862 31.4086 33.5505 31.08 35.4317C29.0679 34.8496 26.9321 34.8496 24.92 35.4317C24.5914 33.5505 23.7825 31.7862 22.5716 30.3096C21.3607 28.833 19.7889 27.6943 18.0085 27.0037C16.2281 26.3132 14.2995 26.0942 12.4097 26.3681C10.5198 26.642 8.73275 27.3994 7.22167 28.567L7.33367 27.3257L8.19 17.906C8.32767 16.394 8.421 15.3977 8.57267 14.6393C8.71733 13.9183 8.88533 13.5707 9.086 13.321C9.28433 13.069 9.583 12.8263 10.2503 12.5207C10.955 12.1987 11.9047 11.879 13.3443 11.4007L14.553 10.9947ZM49.4433 35.8773L49.5833 37.408C49.5633 39.3525 48.797 41.215 47.4428 42.6106C46.0887 44.0063 44.2501 44.8283 42.3071 44.907C40.364 44.9856 38.4651 44.3148 37.0025 43.0332C35.54 41.7516 34.6257 39.9571 34.4486 38.0205C34.2715 36.084 34.8451 34.1534 36.0508 32.6278C37.2566 31.1021 39.0024 30.0979 40.9274 29.8228C42.8525 29.5476 44.8097 30.0225 46.3945 31.1493C47.9794 32.2761 49.0709 33.9687 49.4433 35.8773ZM6.55667 35.8773L6.41667 37.408C6.43671 39.3525 7.203 41.215 8.55717 42.6106C9.91134 44.0063 11.7499 44.8283 13.6929 44.907C15.636 44.9856 17.5349 44.3148 18.9975 43.0332C20.46 41.7516 21.3743 39.9571 21.5514 38.0205C21.7285 36.084 21.1549 34.1534 19.9492 32.6278C18.7434 31.1021 16.9976 30.0979 15.0726 29.8228C13.1475 29.5476 11.1903 30.0225 9.60546 31.1493C8.02058 32.2761 6.92913 33.9687 6.55667 35.8773Z" fill="#1662FF"/>
</svg>
