<svg width="56" height="56" viewBox="0 0 56 56" fill="none" xmlns="http://www.w3.org/2000/svg">
<path fill-rule="evenodd" clip-rule="evenodd" d="M18.5617 2.91666H37.4383C38.4487 2.91666 39.375 2.91666 40.1263 3.01699C40.957 3.12899 41.832 3.39032 42.553 4.11366C43.2763 4.83466 43.5377 5.70966 43.6497 6.54033C43.75 7.29399 43.75 8.22033 43.75 9.22833V9.43833C43.75 10.4487 43.75 11.375 43.6497 12.1263C43.5377 12.957 43.2763 13.832 42.553 14.553C41.832 15.2763 40.957 15.5377 40.1263 15.6497C39.3727 15.75 38.4463 15.75 37.4383 15.75H34.4167V20.7993L37.758 21.6347C38.2085 21.7473 38.5958 22.0343 38.8347 22.4325C39.0737 22.8307 39.1446 23.3075 39.032 23.758C38.9194 24.2085 38.6324 24.5958 38.2342 24.8348C37.836 25.0737 37.3592 25.1446 36.9087 25.032L34.4167 24.409V28.9683L37.758 29.8013C38.2085 29.914 38.5958 30.2009 38.8347 30.5992C39.0737 30.9974 39.1446 31.4742 39.032 31.9247C38.9194 32.3752 38.6324 32.7625 38.2342 33.0014C37.836 33.2404 37.3592 33.3113 36.9087 33.1987L34.4167 32.5757V33.5487C35.5023 33.9335 36.4314 34.6645 37.0608 35.6292C37.6902 36.5939 37.985 37.7387 37.8998 38.8874C37.8147 40.0361 37.3543 41.125 36.5896 41.9863C35.8249 42.8477 34.7982 43.4338 33.6677 43.6543C34.1867 44.6321 34.4439 45.7276 34.4144 46.8342C34.3848 47.9408 34.0695 49.0209 33.499 49.9696C32.9285 50.9183 32.1223 51.7033 31.1587 52.2482C30.1952 52.7931 29.107 53.0795 28 53.0795C26.893 53.0795 25.8048 52.7931 24.8412 52.2482C23.8777 51.7033 23.0715 50.9183 22.501 49.9696C21.9305 49.0209 21.6152 47.9408 21.5856 46.8342C21.5561 45.7276 21.8133 44.6321 22.3323 43.6543C21.2005 43.4354 20.1722 42.8501 19.4061 41.9886C18.64 41.1272 18.1788 40.0376 18.0936 38.8879C18.0084 37.7383 18.304 36.5925 18.9347 35.6276C19.5654 34.6626 20.4961 33.932 21.5833 33.5487V29.3673L18.242 28.532C18.0189 28.4762 17.809 28.3771 17.6243 28.2402C17.4395 28.1033 17.2835 27.9314 17.1652 27.7342C17.0469 27.537 16.9686 27.3185 16.9348 27.091C16.9009 26.8636 16.9122 26.6317 16.968 26.4087C17.0806 25.9582 17.3676 25.5708 17.7658 25.3319C17.963 25.2136 18.1815 25.1353 18.4089 25.1015C18.6364 25.0676 18.8683 25.0789 19.0913 25.1347L21.5833 25.76V21.1983L18.242 20.363C17.7915 20.2504 17.4042 19.9634 17.1652 19.5652C16.9263 19.167 16.8554 18.6902 16.968 18.2397C17.0806 17.7892 17.3676 17.4018 17.7658 17.1629C18.164 16.924 18.6408 16.853 19.0913 16.9657L21.5833 17.5887V15.75H18.5617C17.5513 15.75 16.625 15.75 15.8737 15.6497C15.043 15.5377 14.168 15.2763 13.447 14.553C12.7237 13.832 12.4623 12.957 12.3503 12.1263C12.25 11.3727 12.25 10.4463 12.25 9.43833V9.22833C12.25 8.21799 12.25 7.29166 12.3503 6.54033C12.4623 5.70966 12.7237 4.83466 13.447 4.11366C14.168 3.39032 15.043 3.12899 15.8737 3.01699C16.6273 2.91666 17.5537 2.91666 18.5617 2.91666ZM25.0833 15.75V18.466L30.9167 19.9243V15.75H25.0833ZM30.9167 23.534L25.0833 22.0757V26.635L30.9167 28.0933V23.534ZM30.9167 31.7007L25.0833 30.2423V33.25H30.9167V31.7007ZM28 43.75C27.2264 43.75 26.4846 44.0573 25.9376 44.6043C25.3906 45.1513 25.0833 45.8931 25.0833 46.6667C25.0833 47.4402 25.3906 48.1821 25.9376 48.7291C26.4846 49.2761 27.2264 49.5834 28 49.5834C28.7735 49.5834 29.5154 49.2761 30.0624 48.7291C30.6094 48.1821 30.9167 47.4402 30.9167 46.6667C30.9167 45.8931 30.6094 45.1513 30.0624 44.6043C29.5154 44.0573 28.7735 43.75 28 43.75ZM32.6667 40.25C33.1308 40.25 33.5759 40.0656 33.9041 39.7374C34.2323 39.4093 34.4167 38.9641 34.4167 38.5C34.4167 38.0359 34.2323 37.5908 33.9041 37.2626C33.5759 36.9344 33.1308 36.75 32.6667 36.75H23.3333C22.8692 36.75 22.4241 36.9344 22.0959 37.2626C21.7677 37.5908 21.5833 38.0359 21.5833 38.5C21.5833 38.9641 21.7677 39.4093 22.0959 39.7374C22.4241 40.0656 22.8692 40.25 23.3333 40.25H32.6667ZM15.9273 6.58466L15.9203 6.58699L15.918 6.59399C15.8676 6.72686 15.8347 6.86568 15.82 7.00699C15.7547 7.49699 15.75 8.18299 15.75 9.33333C15.75 10.4837 15.7547 11.1697 15.82 11.6597C15.8347 11.801 15.8676 11.9398 15.918 12.0727L15.9203 12.0797L15.9273 12.082C16.0602 12.1323 16.199 12.1653 16.3403 12.18C16.8303 12.2453 17.5163 12.25 18.6667 12.25H37.3333C38.4837 12.25 39.1697 12.2453 39.6597 12.18C39.801 12.1653 39.9398 12.1324 40.0727 12.082L40.0797 12.0797L40.082 12.0727C40.1324 11.9398 40.1653 11.801 40.18 11.6597C40.2453 11.1697 40.25 10.4837 40.25 9.33333C40.25 8.18299 40.2453 7.49699 40.18 7.00699C40.1653 6.86566 40.1324 6.72683 40.082 6.59399L40.0797 6.58699L40.0727 6.58466C39.9398 6.53427 39.801 6.50133 39.6597 6.48666C39.1697 6.42133 38.4837 6.41666 37.3333 6.41666H18.6667C17.5163 6.41666 16.8303 6.42133 16.3403 6.48666C16.199 6.50138 16.0602 6.53432 15.9273 6.58466ZM8.60999 17.4347C8.93657 17.1054 9.38049 16.9192 9.84424 16.917C10.308 16.9148 10.7537 17.0968 11.0833 17.423L12.733 19.0563C12.9008 19.2169 13.0349 19.4094 13.1275 19.6223C13.2202 19.8353 13.2695 20.0646 13.2726 20.2968C13.2758 20.5291 13.2326 20.7596 13.1458 20.975C13.0589 21.1904 12.93 21.3863 12.7666 21.5514C12.6032 21.7165 12.4086 21.8474 12.1942 21.9365C11.9797 22.0256 11.7496 22.0711 11.5173 22.0704C11.2851 22.0697 11.0553 22.0227 10.8414 21.9323C10.6275 21.8419 10.4337 21.7098 10.2713 21.5437L8.62166 19.9103C8.29239 19.5838 8.10621 19.1398 8.10402 18.6761C8.10183 18.2123 8.28381 17.7643 8.60999 17.4347ZM47.3947 17.4347C47.7208 17.7643 47.9028 18.21 47.9006 18.6737C47.8984 19.1375 47.7123 19.5814 47.383 19.908L45.7333 21.5413C45.5723 21.7124 45.3784 21.8493 45.1633 21.9439C44.9482 22.0385 44.7163 22.0887 44.4814 22.0917C44.2464 22.0947 44.0133 22.0504 43.7958 21.9614C43.5784 21.8723 43.3811 21.7404 43.2158 21.5735C43.0504 21.4065 42.9204 21.208 42.8334 20.9898C42.7464 20.7715 42.7042 20.5379 42.7095 20.303C42.7147 20.0681 42.7671 19.8367 42.8637 19.6225C42.9603 19.4083 43.099 19.2158 43.2717 19.0563L44.9213 17.423C45.251 17.0968 45.6967 16.9148 46.1604 16.917C46.6242 16.9192 47.0681 17.1054 47.3947 17.4347ZM44.9167 26.8333C44.9167 26.3692 45.101 25.9241 45.4292 25.5959C45.7574 25.2677 46.2025 25.0833 46.6667 25.0833H51.3333C51.7975 25.0833 52.2426 25.2677 52.5708 25.5959C52.8989 25.9241 53.0833 26.3692 53.0833 26.8333C53.0833 27.2975 52.8989 27.7426 52.5708 28.0708C52.2426 28.399 51.7975 28.5833 51.3333 28.5833H46.6667C46.2025 28.5833 45.7574 28.399 45.4292 28.0708C45.101 27.7426 44.9167 27.2975 44.9167 26.8333ZM2.91666 26.8357C2.91666 26.3715 3.10103 25.9264 3.42922 25.5982C3.75741 25.27 4.20253 25.0857 4.66666 25.0857H9.33332C9.79745 25.0857 10.2426 25.27 10.5708 25.5982C10.8989 25.9264 11.0833 26.3715 11.0833 26.8357C11.0833 27.2998 10.8989 27.7449 10.5708 28.0731C10.2426 28.4013 9.79745 28.5857 9.33332 28.5857H4.66666C4.20253 28.5857 3.75741 28.4013 3.42922 28.0731C3.10103 27.7449 2.91666 27.2998 2.91666 26.8357ZM12.7447 32.137C12.9064 32.3004 13.0343 32.4941 13.1211 32.707C13.2079 32.9199 13.2519 33.1478 13.2506 33.3777C13.2493 33.6076 13.2027 33.8351 13.1135 34.0469C13.0243 34.2588 12.8942 34.4511 12.7307 34.6127L11.081 36.246C10.7494 36.5635 10.3063 36.738 9.8472 36.7318C9.38814 36.7256 8.9499 36.5392 8.62695 36.2129C8.304 35.8866 8.12222 35.4465 8.1208 34.9874C8.11937 34.5283 8.29841 34.087 8.61932 33.7587L10.269 32.1253C10.5987 31.7992 11.0443 31.6172 11.5081 31.6194C11.9718 31.6216 12.4181 31.8077 12.7447 32.137ZM43.2553 32.137C43.5819 31.8077 44.0258 31.6216 44.4896 31.6194C44.9533 31.6172 45.399 31.7992 45.7287 32.1253L47.3807 33.7587C47.7016 34.087 47.8806 34.5283 47.8792 34.9874C47.8778 35.4465 47.696 35.8866 47.373 36.2129C47.0501 36.5392 46.6118 36.7256 46.1528 36.7318C45.6937 36.738 45.2506 36.5635 44.919 36.246L43.2693 34.6127C42.9397 34.2864 42.7531 33.8427 42.7505 33.3789C42.7479 32.9151 42.9295 32.4693 43.2553 32.1393V32.137Z" fill="#1662FF"/>
</svg>
