<svg width="56" height="56" viewBox="0 0 56 56" fill="none" xmlns="http://www.w3.org/2000/svg">
<path fill-rule="evenodd" clip-rule="evenodd" d="M20.8717 2.91666H23.4617C26.6513 2.91666 29.225 2.91666 31.248 3.18966C33.348 3.46966 35.1167 4.07633 36.5213 5.47866C37.926 6.88333 38.528 8.652 38.8127 10.752C39.0833 12.775 39.0833 15.3487 39.0833 18.5383V37.9167H40.999C43.8083 37.9167 46.0833 40.1917 46.0833 43.001V43.1667C46.0833 43.6308 46.2677 44.0759 46.5959 44.4041C46.9241 44.7323 47.3692 44.9167 47.8333 44.9167C48.2975 44.9167 48.7426 44.7323 49.0708 44.4041C49.399 44.0759 49.5833 43.6308 49.5833 43.1667V33.9267L46.172 32.7903C45.1271 32.4418 44.2183 31.7733 43.5742 30.8797C42.9302 29.9861 42.5835 28.9125 42.5833 27.811V22.1667C42.5833 20.7743 43.1365 19.4389 44.121 18.4544C45.1056 17.4698 46.4409 16.9167 47.8333 16.9167H49.5647C49.4504 15.5855 48.8329 14.3481 47.838 13.4563C47.6575 13.3001 47.4731 13.1483 47.285 13.0013L44.408 10.7007C44.2253 10.5583 44.0728 10.3811 43.9591 10.1794C43.8454 9.97765 43.7729 9.75535 43.7458 9.52538C43.7186 9.2954 43.7374 9.06233 43.801 8.83967C43.8646 8.617 43.9718 8.40917 44.1163 8.22823C44.2608 8.04728 44.4398 7.89682 44.6428 7.78555C44.8459 7.67429 45.0691 7.60443 45.2994 7.58004C45.5296 7.55565 45.7625 7.5772 45.9844 7.64346C46.2063 7.70971 46.4128 7.81934 46.592 7.966L49.5087 10.2993C49.7933 10.528 49.9893 10.6843 50.1737 10.85C51.8982 12.3959 52.9394 14.5624 53.0693 16.8747C53.0833 17.1197 53.0833 17.3717 53.0833 17.738V43.1667C53.0833 44.559 52.5302 45.8944 51.5456 46.879C50.5611 47.8635 49.2257 48.4167 47.8333 48.4167C46.4409 48.4167 45.1056 47.8635 44.121 46.879C43.1365 45.8944 42.5833 44.559 42.5833 43.1667V43.001C42.5833 42.5808 42.4164 42.1778 42.1193 41.8807C41.8222 41.5836 41.4192 41.4167 40.999 41.4167H39.0833V49.5833H39.6667C40.1308 49.5833 40.5759 49.7677 40.9041 50.0959C41.2323 50.4241 41.4167 50.8692 41.4167 51.3333C41.4167 51.7975 41.2323 52.2426 40.9041 52.5708C40.5759 52.899 40.1308 53.0833 39.6667 53.0833H4.66667C4.20254 53.0833 3.75742 52.899 3.42923 52.5708C3.10104 52.2426 2.91667 51.7975 2.91667 51.3333C2.91667 50.8692 3.10104 50.4241 3.42923 50.0959C3.75742 49.7677 4.20254 49.5833 4.66667 49.5833H5.25V18.5383C5.25 15.3487 5.25 12.775 5.523 10.752C5.803 8.652 6.40967 6.88333 7.812 5.47866C9.21667 4.074 10.9853 3.472 13.0853 3.18966C15.1083 2.91666 17.682 2.91666 20.8717 2.91666ZM8.75 49.5833H35.5833V18.6667C35.5833 15.3183 35.5787 12.9803 35.343 11.2187C35.112 9.506 34.6897 8.60066 34.0457 7.95433C33.3993 7.308 32.494 6.888 30.779 6.657C29.0173 6.42133 26.6817 6.41666 23.3333 6.41666H21C17.6517 6.41666 15.3137 6.42133 13.552 6.657C11.8393 6.888 10.934 7.31033 10.2877 7.95433C9.64133 8.60066 9.22133 9.506 8.99033 11.221C8.75467 12.978 8.75 15.316 8.75 18.6667V49.5833ZM49.5833 30.24V20.4167H47.8333C47.3692 20.4167 46.9241 20.601 46.5959 20.9292C46.2677 21.2574 46.0833 21.7025 46.0833 22.1667V27.811C46.0833 28.5647 46.5663 29.2343 47.2803 29.47L49.5833 30.24ZM18.5617 12.25H25.7717C26.782 12.25 27.7083 12.25 28.4597 12.3503C29.2903 12.4623 30.1653 12.7237 30.8863 13.447C31.6097 14.168 31.871 15.043 31.983 15.8737C32.0833 16.6273 32.0833 17.5537 32.0833 18.5617V18.7717C32.0833 19.782 32.0833 20.7083 31.983 21.4597C31.871 22.2903 31.6097 23.1653 30.8863 23.8863C30.1653 24.6097 29.2903 24.871 28.4597 24.983C27.706 25.0833 26.7797 25.0833 25.7717 25.0833H18.5617C17.5513 25.0833 16.625 25.0833 15.8737 24.983C15.043 24.871 14.168 24.6097 13.447 23.8863C12.7237 23.1653 12.4623 22.2903 12.3503 21.4597C12.25 20.706 12.25 19.7797 12.25 18.7717V18.5617C12.25 17.5513 12.25 16.625 12.3503 15.8737C12.4623 15.043 12.7237 14.168 13.447 13.447C14.168 12.7237 15.043 12.4623 15.8737 12.3503C16.6273 12.25 17.5537 12.25 18.5617 12.25ZM15.9273 15.918L15.9203 15.9203L15.918 15.9273C15.8677 16.0602 15.8347 16.199 15.82 16.3403C15.7547 16.8303 15.75 17.5163 15.75 18.6667C15.75 19.817 15.7547 20.503 15.82 20.993C15.8347 21.1343 15.8677 21.2731 15.918 21.406L15.9203 21.413L15.9273 21.4153C16.0602 21.4657 16.199 21.4986 16.3403 21.5133C16.8303 21.5787 17.5163 21.5833 18.6667 21.5833H25.6667C26.817 21.5833 27.503 21.5787 27.993 21.5133C28.1343 21.4987 28.2732 21.4657 28.406 21.4153L28.413 21.413L28.4153 21.406C28.4657 21.2731 28.4987 21.1343 28.5133 20.993C28.5787 20.503 28.5833 19.817 28.5833 18.6667C28.5833 17.5163 28.5787 16.8303 28.5133 16.3403C28.4987 16.199 28.4658 16.0602 28.4153 15.9273L28.413 15.9203L28.406 15.918C28.2731 15.8676 28.1343 15.8347 27.993 15.82C27.503 15.7547 26.817 15.75 25.6667 15.75H18.6667C17.5163 15.75 16.8303 15.7547 16.3403 15.82C16.199 15.8347 16.0602 15.8677 15.9273 15.918ZM14.5833 39.6667C14.5833 39.2025 14.7677 38.7574 15.0959 38.4292C15.4241 38.101 15.8692 37.9167 16.3333 37.9167H28C28.4641 37.9167 28.9092 38.101 29.2374 38.4292C29.5656 38.7574 29.75 39.2025 29.75 39.6667C29.75 40.1308 29.5656 40.5759 29.2374 40.9041C28.9092 41.2323 28.4641 41.4167 28 41.4167H16.3333C15.8692 41.4167 15.4241 41.2323 15.0959 40.9041C14.7677 40.5759 14.5833 40.1308 14.5833 39.6667Z" fill="#1662FF"/>
</svg>
