<svg width="40" height="40" viewBox="0 0 40 40" fill="none" xmlns="http://www.w3.org/2000/svg">
<path fill-rule="evenodd" clip-rule="evenodd" d="M10.7467 2.91666C9.25002 2.91666 8.00002 2.91666 7.01002 3.04999C5.96335 3.18999 5.01835 3.49999 4.26002 4.25832C3.50002 5.01832 3.19002 5.96332 3.05002 7.00832C2.91669 7.99999 2.91669 9.24999 2.91669 10.7467V10.92C2.91669 12.4167 2.91669 13.6667 3.05002 14.6567C3.19002 15.7033 3.50002 16.6483 4.25835 17.4067C5.01835 18.1667 5.96335 18.4767 7.00835 18.6167C8.00002 18.75 9.25002 18.75 10.7467 18.75H10.92C12.4167 18.75 13.6667 18.75 14.6567 18.6167C15.7034 18.4767 16.6484 18.1667 17.4067 17.4067C18.1667 16.6483 18.4767 15.7033 18.6167 14.6567C18.75 13.6667 18.75 12.4167 18.75 10.92V10.7467C18.75 9.24999 18.75 7.99999 18.6167 7.00999C18.4767 5.96332 18.1667 5.01832 17.4067 4.25999C16.6484 3.49999 15.7034 3.18999 14.6567 3.04999C13.6667 2.91666 12.4167 2.91666 10.92 2.91666H10.7467ZM6.02669 6.02666C6.24335 5.80999 6.57335 5.63166 7.34335 5.52666C8.14669 5.41999 9.22669 5.41666 10.8334 5.41666C12.44 5.41666 13.52 5.41999 14.325 5.52832C15.0934 5.63166 15.4234 5.80999 15.64 6.02832C15.8567 6.24499 16.035 6.57332 16.14 7.34166C16.2467 8.14666 16.25 9.22666 16.25 10.8333C16.25 12.44 16.2467 13.52 16.1384 14.325C16.035 15.0933 15.8567 15.4233 15.6384 15.64C15.4217 15.8567 15.0934 16.035 14.325 16.14C13.52 16.2467 12.44 16.25 10.8334 16.25C9.22669 16.25 8.14669 16.2467 7.34169 16.1383C6.57335 16.035 6.24335 15.8567 6.02669 15.6383C5.81002 15.4217 5.63169 15.0933 5.52669 14.325C5.42002 13.52 5.41669 12.44 5.41669 10.8333C5.41669 9.22666 5.42002 8.14666 5.52835 7.34166C5.63169 6.57332 5.81002 6.24332 6.02835 6.02666H6.02669ZM29.08 21.25C27.5817 21.25 26.3334 21.25 25.3434 21.3833C24.2967 21.5233 23.3517 21.8333 22.5933 22.5933C21.8333 23.3517 21.5233 24.2967 21.3834 25.3433C21.25 26.3333 21.25 27.5817 21.25 29.08V29.2533C21.25 30.7517 21.25 32 21.3834 32.99C21.5233 34.0367 21.8333 34.9817 22.5933 35.74C23.3517 36.5 24.2967 36.81 25.3434 36.95C26.3334 37.0833 27.5817 37.0833 29.08 37.0833H29.2533C30.75 37.0833 32 37.0833 32.99 36.95C34.0367 36.81 34.9817 36.5 35.74 35.74C36.5 34.9817 36.81 34.0367 36.95 32.99C37.0833 32 37.0833 30.7517 37.0833 29.2533V29.08C37.0833 27.5833 37.0833 26.3333 36.95 25.3433C36.81 24.2967 36.5 23.3517 35.74 22.5933C34.9817 21.8333 34.0367 21.5233 32.99 21.3833C32 21.25 30.7517 21.25 29.2533 21.25H29.08ZM24.36 24.36C24.5767 24.1433 24.9067 23.965 25.6767 23.86C26.48 23.7533 27.56 23.75 29.1667 23.75C30.7733 23.75 31.8533 23.7533 32.6583 23.86C33.4267 23.965 33.7567 24.1433 33.9734 24.36C34.19 24.5767 34.3683 24.9067 34.4733 25.6767C34.58 26.48 34.5833 27.56 34.5833 29.1667C34.5833 30.7733 34.58 31.8533 34.4717 32.6583C34.3683 33.4267 34.19 33.7567 33.9717 33.9733C33.755 34.19 33.4267 34.3683 32.6583 34.4733C31.8533 34.58 30.7733 34.5833 29.1667 34.5833C27.56 34.5833 26.48 34.58 25.675 34.4717C24.9067 34.3683 24.5767 34.19 24.36 33.9717C24.1434 33.755 23.965 33.4267 23.86 32.6583C23.7533 31.8533 23.75 30.7733 23.75 29.1667C23.75 27.56 23.7533 26.48 23.86 25.675C23.965 24.9067 24.1434 24.5767 24.36 24.36ZM10.7467 21.25H10.92C12.4167 21.25 13.6667 21.25 14.6567 21.3833C15.7034 21.5233 16.6484 21.8333 17.4067 22.5933C18.1667 23.3517 18.4767 24.2967 18.6167 25.3433C18.75 26.3333 18.75 27.5817 18.75 29.08V29.2533C18.75 30.7517 18.75 32 18.6167 32.99C18.4767 34.0367 18.1667 34.9817 17.4067 35.74C16.6484 36.5 15.7034 36.81 14.6567 36.95C13.6667 37.0833 12.4184 37.0833 10.92 37.0833H10.7467C9.25002 37.0833 8.00002 37.0833 7.01002 36.95C5.96335 36.81 5.01835 36.5 4.26002 35.74C3.50002 34.9817 3.19002 34.0367 3.05002 32.99C2.91669 32 2.91669 30.7517 2.91669 29.2533V29.08C2.91669 27.5817 2.91669 26.3333 3.05002 25.3433C3.19002 24.2967 3.50002 23.3517 4.25835 22.5933C5.01835 21.8333 5.96335 21.5233 7.00835 21.3833C8.00002 21.25 9.25002 21.25 10.7467 21.25ZM7.34169 23.86C6.57335 23.965 6.24335 24.1433 6.02669 24.36C5.81002 24.5767 5.63169 24.9067 5.52669 25.6767C5.42002 26.48 5.41669 27.56 5.41669 29.1667C5.41669 30.7733 5.42002 31.8533 5.52835 32.6583C5.63169 33.4267 5.81002 33.7567 6.02835 33.9733C6.24502 34.19 6.57335 34.3683 7.34169 34.4733C8.14669 34.58 9.22669 34.5833 10.8334 34.5833C12.44 34.5833 13.52 34.58 14.325 34.4717C15.0934 34.3683 15.4234 34.19 15.64 33.9717C15.8567 33.755 16.035 33.4267 16.14 32.6583C16.2467 31.8533 16.25 30.7733 16.25 29.1667C16.25 27.56 16.2467 26.48 16.1384 25.675C16.035 24.9067 15.8567 24.5767 15.6384 24.36C15.4217 24.1433 15.0934 23.965 14.325 23.86C13.52 23.7533 12.44 23.75 10.8334 23.75C9.22669 23.75 8.14669 23.7533 7.34169 23.86ZM29.08 2.91666C27.5817 2.91666 26.3334 2.91666 25.3434 3.04999C24.2967 3.18999 23.3517 3.49999 22.5933 4.25832C21.8333 5.01832 21.5233 5.96332 21.3834 7.00832C21.25 7.99999 21.25 9.24999 21.25 10.7467V10.92C21.25 12.4167 21.25 13.6667 21.3834 14.6567C21.5233 15.7033 21.8333 16.6483 22.5933 17.4067C23.3517 18.1667 24.2967 18.4767 25.3434 18.6167C26.3334 18.75 27.5817 18.75 29.08 18.75H29.2533C30.7517 18.75 32 18.75 32.99 18.6167C34.0367 18.4767 34.9817 18.1667 35.74 17.4067C36.5 16.6483 36.81 15.7033 36.95 14.6567C37.0833 13.6667 37.0833 12.4167 37.0833 10.92V10.7467C37.0833 9.24999 37.0833 7.99999 36.95 7.00999C36.81 5.96332 36.5 5.01832 35.74 4.25999C34.9817 3.49999 34.0367 3.18999 32.99 3.04999C32 2.91666 30.7517 2.91666 29.2533 2.91666H29.08ZM24.36 6.02666C24.5767 5.80999 24.9067 5.63166 25.6767 5.52666C26.48 5.41999 27.56 5.41666 29.1667 5.41666C30.7733 5.41666 31.8533 5.41999 32.6583 5.52832C33.4267 5.63166 33.7567 5.80999 33.9734 6.02832C34.19 6.24499 34.3683 6.57332 34.4733 7.34166C34.58 8.14666 34.5833 9.22666 34.5833 10.8333C34.5833 12.44 34.58 13.52 34.4717 14.325C34.3683 15.0933 34.19 15.4233 33.9717 15.64C33.755 15.8567 33.4267 16.035 32.6583 16.14C31.8533 16.2467 30.7733 16.25 29.1667 16.25C27.56 16.25 26.48 16.2467 25.675 16.1383C24.9067 16.035 24.5767 15.8567 24.36 15.6383C24.1434 15.4217 23.965 15.0933 23.86 14.325C23.7533 13.52 23.75 12.44 23.75 10.8333C23.75 9.22666 23.7533 8.14666 23.86 7.34166C23.965 6.57332 24.1434 6.24332 24.36 6.02666Z" fill="#1662FF"/>
</svg>
